<svg id="Layer_1" data-name="Layer 1" xmlns="http://www.w3.org/2000/svg" viewBox="0 0 366.74 387.25"><defs><style>.cls-1{fill:#fff;}</style></defs><path class="cls-1" d="M251.68,457.87H249v8.71h2.71c2.39,0,2.78-2,2.78-4.32S254.07,457.87,251.68,457.87Z" transform="translate(-114.27 -102.8)"/><path class="cls-1" d="M345.59,457.87H342.8v9.27h2.79c2.39,0,2.71-2.08,2.71-4.64S348,457.87,345.59,457.87Z" transform="translate(-114.27 -102.8)"/><path class="cls-1" d="M365.27,457.87h-2.79v8.71h2.79c2.39,0,2.71-2,2.71-4.32S367.66,457.87,365.27,457.87Z" transform="translate(-114.27 -102.8)"/><path class="cls-1" d="M311.93,442a11.65,11.65,0,0,1-3.86,2.91,33.71,33.71,0,0,1-15.53,3.28,41,41,0,0,1-12.75-1.76c-2.88-.89-4.56-2.43-5.23-4.43H114.27v48H481V442ZM134,480.72a7.89,7.89,0,0,1-5.57,1.92,7.49,7.49,0,0,1-5.5-1.92c-1.35-1.36-1.83-3.11-1.83-6.15h4.46a4.81,4.81,0,0,0,.79,3.28,3,3,0,0,0,2.08.71,2.49,2.49,0,0,0,2.15-.79c.63-.64.79-1.68.79-3.2,0-3-.47-3.76-2.71-4.64l-3.42-1.43c-2.87-1.2-3.9-2.72-3.9-7.12,0-2.63.71-4.71,2.31-6.07a7.91,7.91,0,0,1,10,0c1.52,1.44,2,3.44,2,6.23h-4.47a5.37,5.37,0,0,0-.63-3.11,2.45,2.45,0,0,0-2-.8,2.29,2.29,0,0,0-1.92.8,3.93,3.93,0,0,0-.79,2.79c0,2.32.4,3,2.39,3.84l3.34,1.36c3.35,1.44,4.3,3.19,4.3,8C135.85,477.37,135.46,479.36,134,480.72Zm11.55,1.6h-4.46V453.79h4.46Zm18.08,0H151.71V453.79h4.46v24.53h7.48Zm15.86,0L175,470.57l-2.15,4.4v7.35h-4.47V453.79h4.47v13.43L179,453.79h4.54l-5.74,11.83,6.62,16.7Zm38.71-1.6a8.08,8.08,0,0,1-5.58,1.92,7.47,7.47,0,0,1-5.49-1.92c-1.36-1.36-1.83-3.11-1.83-6.15h4.46a4.81,4.81,0,0,0,.79,3.28,2.83,2.83,0,0,0,2.07.71,2.56,2.56,0,0,0,2.15-.79c.56-.64.72-1.68.72-3.2,0-3-.48-3.76-2.63-4.64l-3.42-1.43c-2.87-1.2-3.91-2.72-3.91-7.12,0-2.63.72-4.71,2.31-6.07a6.83,6.83,0,0,1,4.86-1.76,7,7,0,0,1,5.1,1.76c1.51,1.44,2,3.44,2,6.23h-4.46a4.81,4.81,0,0,0-.71-3.11,2.46,2.46,0,0,0-2-.8,2.51,2.51,0,0,0-1.91.8,4.32,4.32,0,0,0-.72,2.79c0,2.32.32,3,2.31,3.84l3.35,1.36c3.43,1.44,4.38,3.19,4.38,8C220.05,477.37,219.65,479.36,218.22,480.72Zm18.8.16a7,7,0,0,1-4.94,1.76,6.77,6.77,0,0,1-5.5-2.4c-2.07-2.39-2.07-6.55-2.07-12.14s0-9.83,2.07-12.23a7.52,7.52,0,0,1,10.44-.56,8.62,8.62,0,0,1,2.31,6.07h-4.46a6,6,0,0,0-.72-2.79,2.14,2.14,0,0,0-2.07-1,2.23,2.23,0,0,0-2.07,1c-.88,1.35-1,4.31-1,9.51s.16,8.07,1,9.43a2.62,2.62,0,0,0,4.22.08,5.48,5.48,0,0,0,.64-2.88h4.54A8.7,8.7,0,0,1,237,480.88Zm18.16,1.44-3.74-11.67H249v11.67h-4.54V453.79h7.25c5.17,0,7.24,2.56,7.24,8.47,0,3.52-.71,6-3.34,7.43l4.22,12.63Zm21.67-24.45h-7.49v8.07h6.45V470h-6.45v8.31h7.49v4h-12V453.79h12Zm17.12,0h-7.48v8.07h6.45V470h-6.45v8.31H294v4H282V453.79H294Zm20.32,24.45h-3.91l-6.69-16.94v16.94h-4.54V453.79h4.06l6.62,16.94V453.79h4.46Zm31.22-11.11H342.8v11.11h-4.46V453.79h7.17c5.1,0,7.33,2.72,7.33,8.71C352.84,468.26,350.85,471.21,345.51,471.21Zm23.18,11.11L365,470.65h-2.55v11.67H358V453.79h7.17c5.17,0,7.25,2.56,7.25,8.47,0,3.52-.72,6-3.27,7.43l4.22,12.63Zm14.18,0h-4.46V453.79h4.46Zm21.27,0h-3.9l-6.7-16.94v16.94H389V453.79h4.07l6.61,16.94V453.79h4.46Zm18.64-24.45H418v24.45h-4.54V457.87h-4.7v-4.08h14Zm9,24.45h-4.46V453.79h4.46Zm21.27,0h-3.9l-6.78-16.94v16.94h-4.46V453.79h4l6.69,16.94V453.79h4.46Zm10.83-4.79a2.35,2.35,0,0,0,2.15,1.11c1.91,0,2.79-1.67,2.79-3.67v-4.48H466v-3.67h7.25v7.91c0,5.19-3,7.91-7.25,7.91a6.73,6.73,0,0,1-5.49-2.4c-2.15-2.39-2.07-6.55-2.07-12.14s-.08-9.83,2.07-12.23a6.73,6.73,0,0,1,5.49-2.4,6.89,6.89,0,0,1,5.1,1.92,9,9,0,0,1,2.15,6h-4.46c0-1.6-.4-3.83-2.79-3.83a2.29,2.29,0,0,0-2.15,1c-.79,1.35-.95,4.31-.95,9.51S463.09,476.17,463.88,477.53Z" transform="translate(-114.27 -102.8)"/><path class="cls-1" d="M381.57,222.14A62,62,0,0,1,353.08,229,63.14,63.14,0,0,1,297,137.28,101.86,101.86,0,0,0,281.07,136c-56.15,0-101.74,45.65-101.74,102.07s45.59,102.06,101.74,102.06S382.81,294.43,382.81,238.1A103.64,103.64,0,0,0,381.57,222.14ZM243.06,209a60.65,60.65,0,0,1,19.79-3.32,59.93,59.93,0,0,1,27.21,6.49,2.35,2.35,0,0,1,1.34,2,2.46,2.46,0,0,1-.78,2.22,15.69,15.69,0,0,0-2.05,2l-28.79,30.14a2.52,2.52,0,0,1-3.08.48,2.57,2.57,0,0,1-1.18-2.93,38.63,38.63,0,0,0,1.81-10.92,21.75,21.75,0,0,0-7.88-17.17,27.45,27.45,0,0,0-6.55-4.27,2.54,2.54,0,0,1-1.5-2.37A2.7,2.7,0,0,1,243.06,209Zm-29.34,88.14a2.4,2.4,0,0,1-2.37-1.26,58.22,58.22,0,0,1-6.94-17.81,2.65,2.65,0,0,1,.71-2.37,2.76,2.76,0,0,1,2.45-.55,20.62,20.62,0,0,0,5,.63,11.59,11.59,0,0,0,7.73-2.61,8.41,8.41,0,0,0,3.15-6.65c0-3.16-1.81-5.38-5.52-6.72-6-2.14-9-5.94-9-11.48a19.34,19.34,0,0,1,5.84-13.68c3.86-4.12,8.28-6.1,13.09-6.1a11,11,0,0,1,7.17,2.54,7.69,7.69,0,0,1,3,6c0,2.69-1.42,7.52-4.18,14.48-5.83,14.32-12.54,29.43-18,43.91A2.55,2.55,0,0,1,213.72,297.12ZM269.56,324a2.41,2.41,0,0,1-2,1.35c-1.58.08-3.16.16-4.74.16A59.36,59.36,0,0,1,227.6,314a2.45,2.45,0,0,1-1-2,2.51,2.51,0,0,1,1-2.06c2.29-1.74,4.18-4.67,5.76-8.55l12.38-30.54a2.4,2.4,0,0,1,2.37-1.5,2.31,2.31,0,0,1,2.28,1.58l16.72,45.26a44.23,44.23,0,0,0,2.45,5.46A2.17,2.17,0,0,1,269.56,324ZM301,311.68a4.08,4.08,0,0,1-2.61.55h-7c-4.41,0-7.25-1.74-8.59-5.3l-15.07-41.14,34.15-35.61a29.31,29.31,0,0,0,2.69-3.24,2.39,2.39,0,0,1,2-.95,2.21,2.21,0,0,1,2,.87A60.05,60.05,0,0,1,301,311.68Z" transform="translate(-114.27 -102.8)"/><path class="cls-1" d="M206.6,375.07a6.25,6.25,0,0,0-.87.09c0,.06,0,.12,0,.18a8.08,8.08,0,0,0,7.64,8.13,6.88,6.88,0,0,0-6.75-8.4Z" transform="translate(-114.27 -102.8)"/><path class="cls-1" d="M291.66,414.79a2.79,2.79,0,0,0,2.71-1.52,8.55,8.55,0,0,0,.8-4.07V399a8.75,8.75,0,0,0-.8-4.16,2.77,2.77,0,0,0-2.79-1.51,2.86,2.86,0,0,0-2.7,1.51,9.19,9.19,0,0,0-.8,4.16V409.2a8.73,8.73,0,0,0,.88,4.07A2.85,2.85,0,0,0,291.66,414.79Z" transform="translate(-114.27 -102.8)"/><path class="cls-1" d="M307.59,436.61a18.6,18.6,0,0,0-5.89-.72H281.55a5.36,5.36,0,0,0-3.19,1.28,3.17,3.17,0,0,0-1,2.08v.16h-.07v1.28h.07v.39h.08v.24l.08.08v.16c.56,1.44,2.08,2.56,4.47,3.44a33.77,33.77,0,0,0,10.75,1.6,36.87,36.87,0,0,0,12.27-1.68,7.11,7.11,0,0,0,4.3-3.36v-.16l.08-.08v-.16h.08v-.24l.08-.08v-.31h.08v-.64l.08-.08v-.56h-.08A2.65,2.65,0,0,0,307.59,436.61Z" transform="translate(-114.27 -102.8)"/><path class="cls-1" d="M164.13,385c3-3.44,11.07-13.19,12.11-14.55a6.35,6.35,0,0,0,1.43-3.36,1.68,1.68,0,0,0-.79-1.59,5.72,5.72,0,0,0-2.31-.64l-2.71-.16h-16l-2.15.16a5.07,5.07,0,0,0-3.35,1.2,6.07,6.07,0,0,0-1,3.67l-.16,3.68v29.09c1.51-1.84,3.66-4.32,6.45-7.6S161.26,388.42,164.13,385Z" transform="translate(-114.27 -102.8)"/><path class="cls-1" d="M400.4,393.22c-4.94,0-4.86,7.59-5,12.38l10.43-.08C405.57,400.65,406.53,393.22,400.4,393.22Z" transform="translate(-114.27 -102.8)"/><path class="cls-1" d="M274.52,438.87a4.12,4.12,0,0,1,1.37-2,10.36,10.36,0,0,1,4.14-1.76,16.51,16.51,0,0,1-5-4.07,8.68,8.68,0,0,1-1.76-5.6,9.56,9.56,0,0,1,2.63-6.79,11.08,11.08,0,0,1,6.29-3.36,14.24,14.24,0,0,1-4.54-4.71,13.09,13.09,0,0,1,2.95-16.38,17,17,0,0,1,11.07-3.76c4.86,0,8.85,1.44,11.87,4.39.56-1.35,15.85-14,17.13-14.78a7.9,7.9,0,0,1,4.46-1.2,6.74,6.74,0,0,1,4.54,1.44,5,5,0,0,1,1.67,4,4.64,4.64,0,0,1-1.27,3.19,4.5,4.5,0,0,1-3.35,1.28,4.63,4.63,0,0,1-3.26-1.12,3.77,3.77,0,0,1-1.28-3.11,3.51,3.51,0,0,1,.72-2.16,3.08,3.08,0,0,0,.72-1.52c0-.16-.24-.32-.64-.32a4.63,4.63,0,0,0-2.31.88c-.8.56-15.85,12.95-16.41,14.06a11.29,11.29,0,0,1,2.23,3.84,13.73,13.73,0,0,1,.8,4.79,11.92,11.92,0,0,1-4.62,9.83,17.07,17.07,0,0,1-10.92,3.76,20.47,20.47,0,0,1-7.56-1.44,6.59,6.59,0,0,0-3.27.56A2.4,2.4,0,0,0,279.4,419a1.69,1.69,0,0,0,1.19,1.68,4.66,4.66,0,0,0,2.55.64h17.13c4.38,0,7.88,1.27,10.51,3.75a13.18,13.18,0,0,1,3.14,13.77H481V364.69H192.41c-.4,0-.8.08-1.11.08a21.13,21.13,0,0,0-2.79.32,13.55,13.55,0,0,0-3.35,1.28,29.72,29.72,0,0,0-5.41,4.79l-14.26,16.62,21.11,32.69a31.53,31.53,0,0,0,4.38,5.75,6.55,6.55,0,0,0,2.94,1.36c.72.16,1.36.24,1.84.32a3.38,3.38,0,0,0,2.15-1,10.26,10.26,0,0,0,.47-3.92l.08-3.67V400.09l-.08-3.36a23.89,23.89,0,0,0-.47-2.87c-.24-.64-1.2-1-2.95-1.2l-2.15-.16v-1.28h21.11v28l.08,3.67a9.44,9.44,0,0,0,.48,3.84c.31.64,1.27,1,2.78,1.2l1.92.08v1.28H159.35v-1.28l3.35-.16a7.92,7.92,0,0,0,2.47-.48c.56-.24.79-.72.79-1.52a6.33,6.33,0,0,0-.39-1.84,16.5,16.5,0,0,0-1.84-3.27c-.95-1.52-2.07-3.12-3.26-5-3-4.63-5.26-7.75-8.29-12.38l-3,3.59v12.31l.16,3.67c.16,1.84.47,3,1,3.6s1.67,1,3.35,1.28l2.86.24v1.28H120.88v-1.28l4-.32a6,6,0,0,0,3.27-1.36,7.16,7.16,0,0,0,1.11-3.6l.16-3.67V373.56l-.16-3.68a6,6,0,0,0-1-3.59,4.7,4.7,0,0,0-3.35-1.36l-3.11-.24h-7.48v74.18Zm173-64.27h21.67v44.67l.08,3.67a9.44,9.44,0,0,0,.48,3.84c.32.64,1.27,1,2.79,1.2l1.91.08v1.28h-26v-1.28l1.91-.08c1.59-.16,2.55-.56,2.87-1.12a10.2,10.2,0,0,0,.48-3.92l.08-3.67v-35.8l-.08-3.28a15.08,15.08,0,0,0-.48-2.88c-.24-.64-1.2-1.12-2.87-1.2l-2.79-.15Zm-27,0h21.67v44.67l.08,3.67a9.5,9.5,0,0,0,.47,3.84c.32.64,1.28,1,2.79,1.2l1.91.08v1.28h-26v-1.28l1.91-.08c1.59-.16,2.55-.56,2.86-1.12a10.2,10.2,0,0,0,.48-3.92l.08-3.67v-35.8l-.08-3.28a15.08,15.08,0,0,0-.48-2.88c-.23-.64-1.19-1.12-2.94-1.2l-2.71-.15Zm-.56,33.8H395.3c0,23.49,18.48,22.06,23.5,8.31l1.27.56c-7.49,20.14-40.62,16.14-40.62-7C379.45,385.54,419.91,382.59,419.91,408.4ZM335.4,395.77a26.44,26.44,0,0,0,.71,2.56c.48,1.28,1.2,3.44,2.23,6.47.8,2.4,1.6,4.8,2.47,7.2l5-12.71-1-2.64a19.05,19.05,0,0,0-1.19-2.63,2.53,2.53,0,0,0-1.75-1.36l-1.76-.16v-1.28h24.54v1.28h-1.2a9.64,9.64,0,0,0-1.83.24c-.71.16-1.11.8-1.11,1.91,0,.4.08.8.08,1.12s.39,1.44.87,3,1.36,4.08,2.47,7.27,1.36,4.08,2.07,5.92l6.54-17.43a1.35,1.35,0,0,0-.4-1.51,8.25,8.25,0,0,0-1.28-.4,9.06,9.06,0,0,0-1.35-.08,8.23,8.23,0,0,0-1.36-.08v-1.28h13.47v1.28l-2.87.32c-1.59.24-3,1.91-4.3,4.95L368,414.87l-5.58,14.79h-5.82l-9.32-26.37L337,429.66h-5.74c-.79-2.32-1.59-4.64-2.47-7.12s-2.39-6.71-4.62-13-3.66-10.39-4.38-12.31a22.3,22.3,0,0,0-1.59-3.51,2,2,0,0,0-1.43-.88,7.89,7.89,0,0,0-1.92-.24,12.17,12.17,0,0,0-1.67-.08l-.24-1.28h25.49v1.28h-.56a8.52,8.52,0,0,0-1.43.24c-.72.16-1.11.8-1.11,1.91C335.32,395.05,335.4,395.45,335.4,395.77Zm-91.29-3c1.51-1.6,4.46-2.32,8.84-2.32a15.59,15.59,0,0,1,9.88,3.2c2.79,2.15,4.14,4.71,4.14,7.59v18.06l.08,3.67a9.44,9.44,0,0,0,.48,3.84c.32.64,1.27,1,2.79,1.2l1.83.08v1.28H247.29v-1.28c1.92,0,3.11-.32,3.51-1s.64-2,.64-4.16l.08-3.67V402.89l-.08-3.28c0-4.24-1.44-6.31-4.38-6.31a4.4,4.4,0,0,0-3.91,1.75,18.42,18.42,0,0,0-1.91,3.68v20.54l.08,3.67c0,2.24.24,3.6.64,4.24s1.51.88,3.5.88v1.28h-25v-1.28l2-.08c1.51-.16,2.47-.56,2.79-1.12a10.2,10.2,0,0,0,.48-3.92l.08-3.67V400.09l-.08-3.36a10.43,10.43,0,0,0-.48-2.87c-.24-.64-1.2-1-2.87-1.2l-1.91-.16v-1.28h20.47v6A13.72,13.72,0,0,1,244.11,392.74Zm-30.33-9.23c-.15,0-.28,0-.43,0A6.88,6.88,0,0,1,199.74,382a6.85,6.85,0,0,1,6-6.79,8.1,8.1,0,0,1,16.2.18A8.16,8.16,0,0,1,213.78,383.51Z" transform="translate(-114.27 -102.8)"/><path class="cls-1" d="M353.08,102.8A62.86,62.86,0,0,0,297,137.22c1.9.3,3.77.68,5.64,1.08,2.11.46,4.2,1,6.26,1.55,3.28.94,6.5,2.06,9.64,3.31q2.78,1.09,5.46,2.34c2.91,1.36,5.73,2.87,8.47,4.49,1.63,1,3.24,2,4.81,3q3.87,2.58,7.47,5.49c1.44,1.16,2.84,2.37,4.22,3.6,2.27,2,4.45,4.18,6.53,6.42,1.26,1.35,2.47,2.75,3.66,4.17q2.94,3.53,5.56,7.32c1.07,1.54,2.11,3.11,3.09,4.72q2.49,4.06,4.59,8.38c.87,1.76,1.7,3.54,2.46,5.36a100.84,100.84,0,0,1,3.45,9.52c.62,2,1.2,4.06,1.7,6.13q.94,3.94,1.59,8A63.14,63.14,0,0,0,353.08,102.8Z" transform="translate(-114.27 -102.8)"/><path class="cls-1" d="M372.43,193.09l-34.05,34.16a62.41,62.41,0,0,0,6.6,1.21l29.91-30C374.13,196.63,373.3,194.85,372.43,193.09Z" transform="translate(-114.27 -102.8)"/><path class="cls-1" d="M364.75,180l-41.4,41.54c1.71.92,3.47,1.77,5.27,2.53l39.22-39.35C366.86,183.1,365.82,181.53,364.75,180Z" transform="translate(-114.27 -102.8)"/><path class="cls-1" d="M355.53,168.5,311.19,213c1.38,1.23,2.8,2.41,4.29,3.52l43.71-43.84C358,171.25,356.79,169.85,355.53,168.5Z" transform="translate(-114.27 -102.8)"/><path class="cls-1" d="M344.78,158.48,301.44,202c1.06,1.52,2.19,3,3.38,4.43L349,162.08C347.62,160.85,346.22,159.64,344.78,158.48Z" transform="translate(-114.27 -102.8)"/><path class="cls-1" d="M332.5,150l-38.25,38.37q1.06,2.79,2.37,5.45L337.31,153C335.74,152,334.13,151,332.5,150Z" transform="translate(-114.27 -102.8)"/><path class="cls-1" d="M318.57,143.16l-28.18,28.27a62.22,62.22,0,0,0,1,6.86L324,145.5Q321.35,144.26,318.57,143.16Z" transform="translate(-114.27 -102.8)"/><path class="cls-1" d="M302.67,138.3l-10.06,10.09a63.91,63.91,0,0,0-2,9.85l18.33-18.39C306.87,139.27,304.78,138.76,302.67,138.3Z" transform="translate(-114.27 -102.8)"/><path class="cls-1" d="M378.34,208l-20.79,20.86a62.37,62.37,0,0,0,9.13-1.34L380,214.1C379.54,212,379,210,378.34,208Z" transform="translate(-114.27 -102.8)"/></svg>